<svg xmlns="http://www.w3.org/2000/svg" viewBox="0 0 300 48" fill="none" aria-labelledby="credera-logo-light-title"><title id="credera-logo-name-title">Credera Logo</title><path d="M6.10352e-05 0.0205078V47.937H32.5643V36.7114H11.2294V11.2499H36.691V32.5847H47.9165V0.0205078H6.10352e-05ZM36.691 36.7114H47.9165V47.937H36.691V36.7114Z" fill="#000000"></path><path d="M94.4268 29.5657C94.1911 30.408 93.8962 31.2026 93.5433 31.9496C92.4808 34.1815 90.9946 35.9111 89.0706 37.15C87.1516 38.3838 84.845 39.0045 82.1508 39.0045C79.548 39.0045 77.2736 38.3838 75.3341 37.15C73.3881 35.9111 71.8904 34.1815 70.8291 31.9496C69.7679 29.719 69.2386 27.0621 69.2386 23.9686C69.2386 20.8816 69.7679 18.2195 70.8291 15.989C71.8904 13.7622 73.3881 12.0378 75.3341 10.8259C77.2736 9.61399 79.548 9.00481 82.1508 9.00481C84.845 9.00481 87.1516 9.61399 89.0706 10.8259C90.9946 12.0378 92.4808 13.7622 93.5433 15.989C93.8962 16.7346 94.1911 17.5292 94.4268 18.3728H104.695C104.23 15.8859 103.437 13.5922 102.316 11.4891C100.397 7.8895 97.6928 5.07552 94.2053 3.04454C90.7139 1.01227 86.6996 0 82.1508 0C77.6033 0 73.6096 1.01227 70.1659 3.04454C66.7221 5.07552 64.0175 7.8895 62.0561 11.4891C60.0895 15.0887 59.1082 19.2486 59.1082 23.9686C59.1082 28.6951 60.0895 32.8549 62.0561 36.4494C64.0175 40.049 66.7221 42.8681 70.1659 44.894C73.6096 46.9262 77.6033 47.9385 82.1508 47.9385C86.6996 47.9385 90.7139 46.9262 94.2053 44.894C97.6928 42.8681 100.397 40.049 102.316 36.4494C103.437 34.3489 104.231 32.0539 104.696 29.5657H94.4268Z" fill="#000000"></path><path d="M239.125 32.5945C239.196 31.8978 239.229 31.1843 239.229 30.4528C239.229 27.0206 238.491 23.9941 237.014 21.3707C235.541 18.7512 233.525 16.7022 230.974 15.2288C228.417 13.7517 225.534 13.0176 222.318 13.0176C219.103 13.0176 216.22 13.7517 213.667 15.2288C211.111 16.7022 209.097 18.7641 207.623 21.4042C206.146 24.0482 205.407 27.0876 205.407 30.521C205.407 32.7426 205.733 34.811 206.386 36.7235C206.714 37.6907 207.128 38.6166 207.623 39.5027C209.097 42.1428 211.111 44.2047 213.667 45.6767C216.22 47.1552 219.082 47.8932 222.251 47.8932C225.512 47.8932 228.404 47.1552 230.94 45.6767C233.471 44.2047 235.485 42.1557 236.984 39.5362C237.492 38.6463 237.915 37.7113 238.252 36.7235H228.167C227.587 37.6211 226.891 38.3282 226.084 38.8446C224.984 39.549 223.704 39.8981 222.251 39.8981C220.887 39.8981 219.644 39.549 218.52 38.8446C217.698 38.3269 216.998 37.6198 216.423 36.7235C216.213 36.3976 216.022 36.0473 215.846 35.6713C215.427 34.7813 215.141 33.7523 214.99 32.5945H239.125ZM215.241 26.9653C215.397 26.3445 215.598 25.7649 215.846 25.2356C216.504 23.8254 217.407 22.7681 218.554 22.0675C219.7 21.3617 220.954 21.0088 222.318 21.0088C223.728 21.0088 224.992 21.3617 226.117 22.0675C227.238 22.7681 228.131 23.8254 228.791 25.2356C229.038 25.7649 229.24 26.3445 229.395 26.9653H215.241Z" fill="#000000"></path><path d="M123.84 13.8743C122.255 14.4474 120.868 15.2408 119.679 16.253C118.49 17.2666 117.477 18.4991 116.641 19.9518L115.782 13.8087H107.591V47.0989H116.839V31.9071C116.839 30.1466 117.046 28.6823 117.466 27.5142C117.884 26.3487 118.5 25.424 119.316 24.7401C120.13 24.0588 121.099 23.563 122.222 23.2539C123.345 22.9474 124.566 22.7916 125.888 22.7916H128.993V13.0166C127.142 13.0166 125.425 13.3025 123.84 13.8743Z" fill="#000000"></path><path d="M193.354 0.046875V17.9702C192.253 16.3848 190.821 15.1639 189.06 14.3049C187.299 13.4459 185.229 13.017 182.852 13.017C179.814 13.017 177.072 13.7756 174.629 15.2953C172.184 16.815 170.269 18.8846 168.882 21.5041C167.495 24.125 166.801 27.1309 166.801 30.5205C166.801 33.8239 167.495 36.7951 168.882 39.4378C170.269 42.0792 172.151 44.1501 174.529 45.6466C176.907 47.1431 179.615 47.8927 182.653 47.8927C184.459 47.8927 186.044 47.6505 187.409 47.1663C188.773 46.6821 189.941 46.033 190.91 45.2177C191.878 44.4025 192.694 43.5332 193.354 42.6085L194.41 47.0993H202.601V0.046875H193.354ZM192.529 35.3423C191.802 36.7526 190.779 37.8524 189.457 38.6444C188.136 39.4378 186.616 39.8344 184.899 39.8344C183.225 39.8344 181.729 39.4378 180.407 38.6444C179.087 37.8524 178.063 36.741 177.336 35.3089C176.609 33.8793 176.246 32.2373 176.246 30.3892C176.246 28.5836 176.609 26.9763 177.336 25.5661C178.063 24.1572 179.087 23.056 180.407 22.264C181.729 21.4719 183.225 21.0753 184.899 21.0753C186.616 21.0753 188.136 21.4719 189.457 22.264C190.779 23.056 191.802 24.1572 192.529 25.5661C193.255 26.9763 193.618 28.6055 193.618 30.4549C193.618 32.3042 193.255 33.9334 192.529 35.3423Z" fill="#000000"></path><path d="M258.284 13.8743C256.698 14.4474 255.311 15.2408 254.123 16.253C252.934 17.2666 251.92 18.4991 251.083 19.9518L250.226 13.8087H242.035V47.0989H251.282V31.9071C251.282 30.1466 251.49 28.6823 251.909 27.5142C252.327 26.3487 252.943 25.424 253.76 24.7401C254.573 24.0588 255.542 23.563 256.665 23.2539C257.788 22.9474 259.01 22.7916 260.332 22.7916H263.435V13.0166C261.586 13.0166 259.869 13.3025 258.284 13.8743Z" fill="#000000"></path><path d="M291.347 13.8086L290.752 18.0354C289.651 16.4513 288.209 15.2189 286.426 14.3367C284.642 13.457 282.562 13.0166 280.183 13.0166C277.145 13.0166 274.425 13.7752 272.026 15.2948C269.625 16.8145 267.722 18.8842 266.313 21.5037C264.903 24.1245 264.198 27.1304 264.198 30.5201C264.198 33.8673 264.892 36.8513 266.28 39.4708C267.667 42.0903 269.56 44.1496 271.96 45.6462C274.36 47.1427 277.056 47.8922 280.052 47.8922C282.737 47.8922 284.94 47.3629 286.658 46.3068C288.374 45.2495 289.738 44.017 290.752 42.6081L291.412 47.0989H300V13.8086H291.347ZM289.926 35.3419C289.2 36.7521 288.176 37.852 286.855 38.644C285.535 39.4373 284.015 39.834 282.297 39.834C280.624 39.834 279.127 39.4373 277.806 38.644C276.485 37.852 275.461 36.7405 274.734 35.3084C274.008 33.8789 273.645 32.2368 273.645 30.3887C273.645 28.5831 274.008 26.9759 274.734 25.5656C275.461 24.1567 276.485 23.0556 277.806 22.2635C279.127 21.4715 280.624 21.0748 282.297 21.0748C284.015 21.0748 285.535 21.4715 286.855 22.2635C288.176 23.0556 289.2 24.1567 289.926 25.5656C290.653 26.9759 291.016 28.605 291.016 30.4544C291.016 32.3038 290.653 33.933 289.926 35.3419Z" fill="#000000"></path><path d="M163.891 32.5945C163.962 31.8978 163.995 31.1843 163.995 30.4528C163.995 27.0206 163.257 23.9941 161.78 21.3707C160.307 18.7512 158.291 16.7022 155.74 15.2288C153.184 13.7517 150.3 13.0176 147.084 13.0176C143.87 13.0176 140.986 13.7517 138.434 15.2288C135.877 16.7022 133.863 18.7641 132.39 21.4042C130.912 24.0482 130.173 27.0876 130.173 30.521C130.173 32.7426 130.499 34.811 131.152 36.7235C131.48 37.6907 131.894 38.6166 132.39 39.5027C133.863 42.1428 135.877 44.2047 138.434 45.6767C140.986 47.1552 143.848 47.8932 147.017 47.8932C150.278 47.8932 153.171 47.1552 155.707 45.6767C158.237 44.2047 160.251 42.1557 161.751 39.5362C162.258 38.6463 162.682 37.7113 163.018 36.7235H152.934C152.353 37.6211 151.657 38.3282 150.85 38.8446C149.75 39.549 148.47 39.8981 147.017 39.8981C145.653 39.8981 144.411 39.549 143.286 38.8446C142.465 38.3269 141.764 37.6198 141.19 36.7235C140.98 36.3976 140.788 36.0473 140.613 35.6713C140.193 34.7813 139.907 33.7523 139.756 32.5945H163.891ZM140.007 26.9653C140.163 26.3445 140.364 25.7649 140.613 25.2356C141.271 23.8254 142.174 22.7681 143.32 22.0675C144.466 21.3617 145.72 21.0088 147.084 21.0088C148.494 21.0088 149.758 21.3617 150.883 22.0675C152.004 22.7681 152.898 23.8254 153.557 25.2356C153.804 25.7649 154.007 26.3445 154.161 26.9653H140.007Z" fill="#000000"></path></svg>