<svg width="56" height="16" viewBox="0 0 56 16" fill="none" xmlns="http://www.w3.org/2000/svg">
    <path d="M55.384 13.279c0 1.502-1.21 2.72-2.704 2.72a2.713 2.713 0 0 1-2.705-2.72c0-1.503 1.21-2.72 2.705-2.72a2.711 2.711 0 0 1 2.704 2.72z" fill="#00DAFF"/>
    <path d="M10.334 4.882c-1.781 0-3.93 1.083-4.92 3.335V0H0v15.606h5.415v-4.758c0-1.036.834-1.874 1.863-1.874a1.87 1.87 0 0 1 1.864 1.874v4.758h5.408V9.33c0-2.826-1.684-4.448-4.217-4.448M19.19 15.606h2.741V0h-5.414v12.916c0 1.483 1.2 2.69 2.674 2.69zM31.742 11.53a1.388 1.388 0 0 1-1.032.462c-.771 0-1.397-.63-1.397-1.405V8.964h2.414V5.277h-2.414V.737l-5.415 1.705v9.203c0 2.153.566 4.355 4.766 4.355 1.598 0 2.89-.277 3.938-.844l-.86-3.624v-.002zM44.026 4.882c-1.781 0-3.93 1.083-4.919 3.335V0h-5.415v15.606h5.415v-4.758c0-1.036.835-1.874 1.864-1.874a1.87 1.87 0 0 1 1.863 1.874v4.758h5.409V9.33c0-2.826-1.685-4.448-4.218-4.448" fill="black"/>
</svg>
