<svg fill="#000000" xmlns="http://www.w3.org/2000/svg"  viewBox="0 0 597 138">
    <path d="M97.42 96.36c0 27.31-19.96 41.59-46.63 41.59C18.02 137.94.8 121.14.8 92.37v-3.79h29.62v2.74c0 13.65 6.93 21.2 20.16 21.2 9.03 0 14.71-4.2 14.72-11.97 0-6.93-3.79-10.28-11.76-12.8l-20.17-6.3C15.09 75.78 2.08 65.48 2.08 42.17 2.09 17.38 19.74.58 47.46.58c31.51 0 47.88 18.49 47.87 45.79v4h-29.4v-2.73c0-13.24-5.88-21.43-18.69-21.43-8.62 0-13.87 4.42-13.87 12.19 0 6.08 3.57 9.87 10.5 12.18l19.54 6.52c21.84 7.13 34.02 17.85 34.01 39.27m68.07-29.62 39.04 68.68h-35.49l-22.05-40.54-21.65 40.54H91.1l39.1-67.63L93.89 3.09h35.49l19.31 37.18 19.34-37.18h34.02l-36.56 63.65zm131.69 29.62c0 27.31-19.97 41.59-46.64 41.59-32.77 0-49.98-16.8-49.97-45.57V88.6h29.62v2.74c0 13.65 6.92 21.2 20.15 21.2 9.04 0 14.71-4.2 14.72-11.97 0-6.93-3.77-10.28-11.76-12.8l-20.16-6.3c-18.27-5.67-31.29-15.97-31.28-39.28C201.86 17.4 219.52.6 247.24.6c31.51 0 47.89 18.49 47.89 45.79v4h-29.41v-2.73c0-13.24-5.87-21.43-18.69-21.43-8.62 0-13.87 4.42-13.87 12.19 0 6.08 3.57 9.87 10.51 12.18l19.52 6.52c21.84 7.13 34.03 17.85 34.02 39.27m119.11-93.3h30.88l-24.83 132.33h-36.76l-12.37-84.85h-.83l-12.42 84.85h-36.76L298.48 3.09h32.97l13.84 85.07h.84l12.63-85.07h30.26l12.57 85.07h.84l13.88-85.07zm19.3 122.87c-2.56 0-4.67 1.99-4.67 4.74 0 2.74 2.11 4.73 4.67 4.73s4.71-1.99 4.71-4.73c0-2.75-2.11-4.74-4.71-4.74m0 8.67c-2.11 0-3.83-1.65-3.82-3.92 0-2.31 1.71-3.93 3.83-3.93s3.86 1.63 3.86 3.93c0 2.27-1.71 3.92-3.86 3.92zm2.15-2.61c-.05-.6-.36-.88-.9-.99.63-.1 1.09-.57 1.09-1.29 0-.95-.64-1.55-1.91-1.55h-2.41v4.96h1.26v-1.65h.81c.52 0 .75.18.77.75.05.54.11.77.23.91h1.33c-.18-.18-.22-.41-.26-1.13zm-2.04-1.5h-.83v-1.3h.83c.59 0 .91.2.91.65s-.31.65-.91.65m160.48-102.1-72.96 72.72h72.91v34.26H463.82l.04-132.34h34.25l-.02 72.57 72.78-72.55z" fill="#000000" />
</svg>